<?xml version="1.0" standalone="no"?>
<!DOCTYPE svg PUBLIC "-//W3C//DTD SVG 20010904//EN"
 "http://www.w3.org/TR/2001/REC-SVG-20010904/DTD/svg10.dtd">
<svg version="1.0" xmlns="http://www.w3.org/2000/svg"
 width="1086.000000pt" height="1086.000000pt" viewBox="0 0 1086.000000 1086.000000"
 preserveAspectRatio="xMidYMid meet">
<metadata>
Created by potrace 1.14, written by Peter Selinger 2001-2017
</metadata>
<g transform="translate(0.000000,1086.000000) scale(0.100000,-0.100000)"
fill="#000000" stroke="none">
<path d="M4505 9960 l-890 -890 -895 0 c-492 0 -901 0 -907 0 -17 0 -19 -1773
-3 -1817 6 -16 398 -415 896 -914 598 -598 885 -892 883 -903 -2 -9 -401 -414
-887 -900 -485 -485 -882 -890 -882 -899 0 -16 63 -17 895 -17 l895 0 0 -890
c0 -688 3 -895 12 -913 24 -43 1792 -1807 1812 -1807 12 0 357 339 920 903
l901 902 0 900 0 900 893 3 c701 2 892 -1 892 -10 0 -7 -30 -43 -67 -80 -37
-37 -64 -70 -60 -74 3 -4 13 -1 21 5 11 9 16 9 22 0 4 -7 3 -9 -4 -5 -6 3 -16
-3 -22 -14 -12 -23 -32 -27 -24 -5 13 34 -18 10 -112 -85 -100 -102 -121 -129
-90 -117 14 6 15 3 6 -13 -6 -11 -15 -20 -21 -20 -6 0 -8 4 -4 9 3 5 1 12 -3
15 -8 5 -1033 -1014 -1040 -1033 -2 -5 6 -7 17 -4 28 7 26 -1 -4 -21 -21 -14
-24 -14 -19 -1 13 34 -18 10 -115 -87 -97 -98 -119 -127 -85 -114 8 3 25 -3
36 -14 18 -16 19 -20 6 -20 -9 0 -18 5 -20 12 -3 7 -12 9 -22 5 -9 -4 -14 -12
-11 -17 4 -6 1 -9 -7 -8 -7 2 -12 -3 -10 -9 1 -7 -4 -13 -12 -13 -8 0 -16 -7
-20 -15 -3 -8 -11 -15 -18 -15 -7 0 5 18 27 40 63 64 30 59 -36 -6 -33 -32
-65 -67 -70 -76 -8 -15 -5 -16 23 -12 18 3 419 6 891 7 l857 2 -1 835 c-2 787
-1 870 5 928 2 16 288 309 904 925 676 676 902 908 902 925 0 18 -224 247
-895 916 l-895 892 0 907 c0 900 0 906 -20 917 -15 8 -284 10 -911 8 l-891 -3
-888 888 c-869 868 -889 887 -927 887 -37 0 -57 -19 -928 -890z m2704 -917
c-45 -58 -1769 -1773 -1780 -1771 -8 1 -414 403 -904 895 l-890 893 1794 0
c1707 0 1793 -1 1780 -17z m-3599 -893 l0 -890 -892 0 -893 0 890 890 c490
489 891 890 893 890 1 0 2 -400 2 -890z m4540 -5 l885 -885 -886 0 c-800 0
-887 2 -893 16 -9 23 -7 1754 2 1754 4 0 405 -398 892 -885z m-1797 -905 l887
0 0 -1805 0 -1805 -1805 0 -1805 0 -1 888 c-1 1004 0 2553 0 2654 l1 68 898 3
c493 1 906 1 917 0 11 -2 419 -3 908 -3z m2698 -3584 c-5 -12 -1781 1766
-1781 1784 0 8 399 414 888 901 l887 887 5 -1782 c3 -979 3 -1785 1 -1790z
m-2722 -940 c491 -491 889 -895 885 -897 -5 -2 -812 -3 -1793 -1 l-1784 2 894
895 c492 492 896 895 899 895 3 0 407 -402 899 -894z m2671 796 c0 -12 -38
-41 -44 -34 -3 3 1 14 11 24 17 19 33 24 33 10z m34 -27 c-4 -8 -12 -15 -20
-15 -20 0 -17 18 4 23 9 3 18 5 19 6 1 0 0 -6 -3 -14z m-94 -90 c0 -8 -5 -15
-11 -15 -6 0 -9 -6 -6 -14 4 -10 0 -12 -14 -9 -22 6 -26 23 -4 23 8 0 15 7 15
15 0 8 5 15 10 15 6 0 10 -7 10 -15z m-106 -50 c-4 -8 -11 -12 -16 -9 -6 4 -5
10 3 15 19 12 19 11 13 -6z m-1 -52 c-13 -34 -53 -59 -53 -33 0 6 7 10 15 10
8 0 15 6 15 14 0 12 6 18 27 25 1 1 -1 -7 -4 -16z m-71 -23 c-12 -12 -22 -15
-22 -9 0 13 32 40 39 33 3 -2 -5 -13 -17 -24z m-42 -95 c0 -8 -5 -15 -11 -15
-6 0 -9 -7 -6 -14 4 -11 1 -13 -11 -9 -14 6 -15 4 -4 -9 8 -9 9 -19 4 -22 -6
-3 -15 1 -21 8 -8 10 -9 16 -1 21 6 3 8 11 5 16 -4 5 1 9 9 9 9 0 16 7 16 15
0 8 5 15 10 15 6 0 10 -7 10 -15z m-75 -15 c-3 -5 -12 -10 -18 -10 -7 0 -6 4
3 10 19 12 23 12 15 0z m-69 -110 c8 0 14 7 14 15 0 8 5 15 10 15 15 0 12 -19
-4 -36 -18 -18 -24 -18 -42 1 -9 9 -12 20 -7 27 5 10 8 8 11 -4 2 -10 10 -18
18 -18z m-54 -22 c-7 -7 -10 -5 -7 8 5 29 6 30 12 16 3 -8 1 -18 -5 -24z m-38
-33 c-17 -26 -24 -31 -24 -16 0 10 28 41 36 41 2 0 -3 -11 -12 -25z m16 -36
c0 -10 -37 -49 -47 -49 -1 0 -3 7 -3 15 0 8 7 15 15 15 8 0 15 7 15 15 0 8 5
15 10 15 6 0 10 -5 10 -11z m-101 -106 c-34 -43 -59 -57 -59 -33 0 6 7 10 15
10 8 0 15 6 15 14 0 8 8 17 18 19 9 3 19 5 21 6 2 0 -3 -7 -10 -16z m-75 -22
c-10 -10 -21 -14 -23 -8 -4 10 17 27 33 27 5 0 1 -8 -10 -19z m-41 -41 c3 -12
1 -17 -5 -14 -5 3 -16 -2 -23 -12 -8 -11 -15 -14 -15 -9 0 9 30 54 36 55 1 0
4 -9 7 -20z m-3 -51 c0 -15 -26 -39 -42 -39 -9 1 -7 5 5 14 9 7 17 18 17 25 0
6 5 11 10 11 6 0 10 -5 10 -11z m-100 -49 c-8 -5 -19 -10 -25 -10 -5 0 -3 5 5
10 8 5 20 10 25 10 6 0 3 -5 -5 -10z m-10 -61 c0 -13 -20 -33 -42 -42 -12 -4
-15 -2 -11 9 3 7 11 14 19 14 8 0 14 7 14 15 0 8 5 15 10 15 6 0 10 -5 10 -11z
m-64 -14 c-21 -16 -32 -13 -21 4 3 6 14 11 23 11 15 -1 15 -2 -2 -15z m-62
-60 c-10 -16 -20 -23 -22 -16 -4 11 29 52 36 46 2 -2 -4 -16 -14 -30z m126 1
c0 -2 -8 -10 -17 -17 -16 -13 -17 -12 -4 4 13 16 21 21 21 13z m-110 -37 c0
-14 -25 -39 -39 -39 -6 0 -11 5 -11 10 0 6 7 10 15 10 8 0 15 7 15 15 0 8 5
15 10 15 6 0 10 -5 10 -11z m26 -41 c4 -7 4 -10 -1 -6 -4 4 -15 2 -24 -5 -14
-11 -14 -10 -2 6 16 20 18 21 27 5z m-111 -18 c-3 -4 -15 -6 -27 -2 -21 5 -21
6 -2 12 21 8 37 3 29 -10z m-25 -51 c0 -13 -20 -33 -42 -42 -12 -4 -15 -2 -11
9 6 17 -18 19 -36 2 -10 -11 -12 -10 -9 2 4 19 41 35 46 21 6 -17 32 -13 32 4
0 8 5 15 10 15 6 0 10 -5 10 -11z m-131 -85 c-17 -21 -31 -17 -17 5 7 11 16
17 20 14 5 -2 4 -11 -3 -19z m21 -25 c0 -13 -18 -30 -50 -47 -24 -12 -24 -12
3 12 15 14 27 30 27 36 0 5 5 10 10 10 6 0 10 -5 10 -11z m-110 -110 c0 -14
-25 -39 -39 -39 -6 0 -11 5 -11 10 0 6 7 10 15 10 8 0 15 7 15 15 0 8 5 15 10
15 6 0 10 -5 10 -11z m-127 -77 c-21 -22 -26 -21 -17 2 3 9 12 16 20 16 11 0
10 -4 -3 -18z m27 -25 c0 -2 -8 -14 -19 -25 -19 -23 -41 -29 -41 -12 0 6 7 10
15 10 8 0 15 7 15 15 0 8 7 15 15 15 8 0 15 -2 15 -3z m-130 -67 c0 -5 -5 -10
-11 -10 -5 0 -7 5 -4 10 3 6 8 10 11 10 2 0 4 -4 4 -10z m13 -57 c-3 -7 -9
-13 -14 -13 -5 0 -9 6 -9 13 0 8 6 14 14 14 8 0 12 -6 9 -14z m613 -88 c12
-12 12 -15 2 -15 -10 0 -11 -2 0 -8 8 -6 1 -9 -20 -9 -18 0 -27 2 -19 5 11 4
11 6 0 14 -10 6 -6 7 11 2 22 -6 23 -5 11 10 -17 20 -5 21 15 1z m-601 -13
c-3 -3 -11 0 -18 7 -9 10 -8 11 6 5 10 -3 15 -9 12 -12z m50 -2 c-3 -5 3 -10
12 -13 10 -2 3 -4 -15 -4 -22 0 -29 3 -20 8 7 5 9 9 5 9 -5 0 -5 5 -2 10 4 6
11 8 16 4 5 -3 7 -9 4 -14z m-175 -5 c10 -12 10 -15 -4 -15 -9 0 -16 7 -16 15
0 8 2 15 4 15 2 0 9 -7 16 -15z m277 9 c-3 -3 -12 -4 -19 -1 -8 3 -5 6 6 6 11
1 17 -2 13 -5z m40 -7 c0 -8 -6 -14 -14 -14 -9 0 -10 4 -2 14 6 7 12 13 14 13
1 0 2 -6 2 -13z m520 7 c-3 -3 -12 -4 -19 -1 -8 3 -5 6 6 6 11 1 17 -2 13 -5z
m120 -9 c0 -8 -4 -12 -9 -9 -5 3 -6 10 -3 15 9 13 12 11 12 -6z m200 -1 c0 -6
-10 -10 -21 -9 -28 3 -28 3 -21 14 8 13 42 9 42 -5z m40 1 c0 -6 -6 -12 -12
-12 -6 0 -12 6 -12 12 0 6 6 12 12 12 6 0 12 -6 12 -12z m228 7 l-20 -5 20 -7
c13 -5 2 -7 -30 -7 -27 0 -39 2 -25 4 14 3 29 9 35 14 5 5 16 8 25 8 9 -1 8
-3 -5 -7z m-1480 -12 c-3 -5 -12 -10 -18 -10 -7 0 -6 4 3 10 19 12 23 12 15 0z
m332 -6 c-3 -3 -12 -4 -19 -1 -8 3 -5 6 6 6 11 1 17 -2 13 -5z m296 -1 c-7 -2
-21 -2 -30 0 -10 3 -4 5 12 5 17 0 24 -2 18 -5z m670 0 c-7 -2 -19 -2 -25 0
-7 3 -2 5 12 5 14 0 19 -2 13 -5z m60 0 c-7 -2 -21 -2 -30 0 -10 3 -4 5 12 5
17 0 24 -2 18 -5z"/>
<path d="M892 6347 c-510 -510 -892 -900 -892 -910 0 -25 1777 -1800 1795
-1793 13 5 15 241 15 1801 0 1431 -3 1795 -13 1795 -6 0 -414 -402 -905 -893z"/>
<path d="M1800 2710 c0 -593 3 -900 10 -900 6 0 411 0 900 0 490 0 893 0 897
0 5 0 -397 405 -892 900 -495 495 -903 900 -907 900 -5 0 -8 -405 -8 -900z"/>
<path d="M1 123 l-1 -113 61 0 62 0 -33 23 c-46 30 -74 81 -81 147 -5 42 -6
28 -8 -57z"/>
</g>
</svg>
